HIERARCHY
ROOT hip
{
  OFFSET 0 0 0
  CHANNELS 6 Xposition Yposition Zposition Zrotation Yrotation Xrotation
  JOINT abdomen
  {
    OFFSET 0 20.6881 -0.73152
    CHANNELS 3 Zrotation Xrotation Yrotation
    JOINT chest
    {
      OFFSET 0 11.7043 -0.48768
      CHANNELS 3 Zrotation Xrotation Yrotation
      JOINT neck
      {
        OFFSET 0 22.1894 -2.19456
        CHANNELS 3 Zrotation Xrotation Yrotation
        JOINT head
        {
          OFFSET -0.24384 7.07133 1.2192
          CHANNELS 3 Zrotation Xrotation Yrotation
          JOINT leftEye
          {
            OFFSET 4.14528 8.04674 8.04672
            CHANNELS 3 Zrotation Xrotation Yrotation
            End Site
            {
              OFFSET 1 0 0
            }
          }
          JOINT rightEye
          {
            OFFSET -3.6576 8.04674 8.04672
            CHANNELS 3 Zrotation Xrotation Yrotation
            End Site
            {
              OFFSET 1 0 0
            }
          }
        }
      }
      JOINT rCollar
      {
        OFFSET -2.68224 19.2634 -4.8768
        CHANNELS 3 Zrotation Xrotation Yrotation
        JOINT rShldr
        {
          OFFSET -8.77824 -1.95073 1.46304
          CHANNELS 3 Zrotation Xrotation Yrotation
          JOINT rForeArm
          {
            OFFSET -28.1742 -1.7115 0.48768
            CHANNELS 3 Zrotation Xrotation Yrotation
            JOINT rHand
            {
              OFFSET -22.5879 0.773209 7.07136
              CHANNELS 3 Zrotation Xrotation Yrotation
              JOINT rThumb1
              {
                OFFSET -1.2192 -0.487915 3.41376
                CHANNELS 3 Zrotation Xrotation Yrotation
                JOINT rThumb2
                {
                  OFFSET -3.37035 -0.52449 3.41376
                  CHANNELS 3 Zrotation Xrotation Yrotation
                  End Site
                  {
                    OFFSET -1.78271 -1.18214 1.43049
                  }
                }
              }
              JOINT rIndex1
              {
                OFFSET -7.75947 0.938293 5.60832
                CHANNELS 3 Zrotation Xrotation Yrotation
                JOINT rIndex2
                {
                  OFFSET -2.54057 -0.884171 1.56538
                  CHANNELS 3 Zrotation Xrotation Yrotation
                  End Site
                  {
                    OFFSET -1.62519 -0.234802 1.16502
                  }
                }
              }
              JOINT rMid1
              {
                OFFSET -8.24714 1.18213 3.41376
                CHANNELS 3 Zrotation Xrotation Yrotation
                JOINT rMid2
                {
                  OFFSET -3.10165 -0.590103 1.0647
                  CHANNELS 3 Zrotation Xrotation Yrotation
                  End Site
                  {
                    OFFSET -2.48547 -0.328903 0.83742
                  }
                }
              }
              JOINT rRing1
              {
                OFFSET -8.82822 0.546677 1.51678
                CHANNELS 3 Zrotation Xrotation Yrotation
                JOINT rRing2
                {
                  OFFSET -2.60934 -0.819778 -0.0198488
                  CHANNELS 3 Zrotation Xrotation Yrotation
                  End Site
                  {
                    OFFSET -2.33842 -0.294052 0.168128
                  }
                }
              }
              JOINT rPinky1
              {
                OFFSET -8.27202 -0.0477905 -0.4584
                CHANNELS 3 Zrotation Xrotation Yrotation
                JOINT rPinky2
                {
                  OFFSET -1.82734 -0.647385 -0.700984
                  CHANNELS 3 Zrotation Xrotation Yrotation
                  End Site
                  {
                    OFFSET -1.69225 -0.51767 -0.607171
                  }
                }
              }
            }
          }
        }
      }
      JOINT lCollar
      {
        OFFSET 2.68224 19.2634 -4.8768
        CHANNELS 3 Zrotation Xrotation Yrotation
        JOINT lShldr
        {
          OFFSET 8.77824 -1.95073 1.46304
          CHANNELS 3 Zrotation Xrotation Yrotation
          JOINT lForeArm
          {
            OFFSET 28.1742 -1.7115 0.48768
            CHANNELS 3 Zrotation Xrotation Yrotation
            JOINT lHand
            {
              OFFSET 22.5879 0.773209 7.07136
              CHANNELS 3 Zrotation Xrotation Yrotation
              JOINT lThumb1
              {
                OFFSET 1.2192 -0.487915 3.41376
                CHANNELS 3 Zrotation Xrotation Yrotation
                JOINT lThumb2
                {
                  OFFSET 3.37035 -0.52449 3.41376
                  CHANNELS 3 Zrotation Xrotation Yrotation
                  End Site
                  {
                    OFFSET 1.78271 -1.18214 1.43049
                  }
                }
              }
              JOINT lIndex1
              {
                OFFSET 7.75947 0.938293 5.60832
                CHANNELS 3 Zrotation Xrotation Yrotation
                JOINT lIndex2
                {
                  OFFSET 2.54057 -0.884171 1.56538
                  CHANNELS 3 Zrotation Xrotation Yrotation
                  End Site
                  {
                    OFFSET 1.62519 -0.234802 1.16502
                  }
                }
              }
              JOINT lMid1
              {
                OFFSET 8.24714 1.18213 3.41376
                CHANNELS 3 Zrotation Xrotation Yrotation
                JOINT lMid2
                {
                  OFFSET 3.10165 -0.590103 1.0647
                  CHANNELS 3 Zrotation Xrotation Yrotation
                  End Site
                  {
                    OFFSET 2.48547 -0.328903 0.83742
                  }
                }
              }
              JOINT lRing1
              {
                OFFSET 8.82822 0.546677 1.51678
                CHANNELS 3 Zrotation Xrotation Yrotation
                JOINT lRing2
                {
                  OFFSET 2.60934 -0.819778 -0.0198488
                  CHANNELS 3 Zrotation Xrotation Yrotation
                  End Site
                  {
                    OFFSET 2.33842 -0.294052 0.168128
                  }
                }
              }
              JOINT lPinky1
              {
                OFFSET 8.27202 -0.0477905 -0.4584
                CHANNELS 3 Zrotation Xrotation Yrotation
                JOINT lPinky2
                {
                  OFFSET 1.82734 -0.647385 -0.700984
                  CHANNELS 3 Zrotation Xrotation Yrotation
                  End Site
                  {
                    OFFSET 1.69225 -0.51767 -0.607171
                  }
                }
              }
            }
          }
        }
      }
    }
  }
  JOINT rButtock
  {
    OFFSET -8.77824 4.35084 1.2192
    CHANNELS 3 Zrotation Xrotation Yrotation
    JOINT rThigh
    {
      OFFSET 0 -1.70687 -2.19456
      CHANNELS 3 Zrotation Xrotation Yrotation
      JOINT rShin
      {
        OFFSET 0 -36.8199 0.73152
        CHANNELS 3 Zrotation Xrotation Yrotation
        JOINT rFoot
        {
          OFFSET 0.73152 -45.1104 -5.12064
          CHANNELS 3 Zrotation Xrotation Yrotation
          End Site
          {
            OFFSET -1.1221 -3.69964 12.103
          }
        }
      }
    }
  }
  JOINT lButtock
  {
    OFFSET 8.77824 4.35084 1.2192
    CHANNELS 3 Zrotation Xrotation Yrotation
    JOINT lThigh
    {
      OFFSET 0 -1.70687 -2.19456
      CHANNELS 3 Zrotation Xrotation Yrotation
      JOINT lShin
      {
        OFFSET 0 -36.8199 0.73152
        CHANNELS 3 Zrotation Xrotation Yrotation
        JOINT lFoot
        {
          OFFSET -0.73152 -45.1104 -5.12064
          CHANNELS 3 Zrotation Xrotation Yrotation
          End Site
          {
            OFFSET 1.1221 -3.69964 12.103
          }
        }
      }
    }
  }
}
MOTION
Frames:	9
Frame Time:	0.00833333
-56.4126 84.1002 36.9934 0.0 0.0 0.0 -1.51926 -0.00282944 -0.0413936 -0.4187 0.00102614 -0.0725115 -2.32695e-15 -7.95139e-16 2.48481e-17 -6.49467e-15 3.18055e-15 -3.10601e-18 -0.0 0.0 0.0 -0.0 0.0 0.0 -9.94972e-16 5.39669e-17 1.98785e-16 -1.95399e-14 1.41013e-15 5.96354e-16 -3.62732e-13 1.55648e-13 -6.36111e-15 -4.25305e-12 1.06449e-13 -6.36111e-14 -1.00102e-11 5.62849e-13 -1.36764e-13 -1.72943e-11 9.70069e-13 -2.48878e-13 -1.00068e-11 5.63753e-13 -1.49486e-13 7.73091 5.47488 0.417314 -1.00097e-11 5.62759e-13 -1.36764e-13 2.90554 0.965183 0.102902 -1.00016e-11 5.63256e-13 -1.41535e-13 10.2786 0.731801 0.0259123 -1.00142e-11 5.65741e-13 -1.33583e-13 2.22167 -0.733487 -0.20892 -1.09234e-15 5.51317e-17 -1.49089e-16 -2.42129e-14 1.00014e-15 -9.93923e-16 -3.80225e-13 -7.07673e-14 0.0 -4.25164e-12 3.1736e-13 -5.40694e-14 -1.00396e-11 5.34853e-13 -1.33583e-13 -1.73344e-11 9.22361e-13 -2.29795e-13 -1.00458e-11 5.35923e-13 -1.24042e-13 -7.73091 5.47488 -0.417314 -1.00383e-11 5.34134e-13 -1.39944e-13 -2.90554 0.965183 -0.102902 -1.00495e-11 5.3493e-13 -1.33583e-13 -10.2786 0.731801 -0.0259123 -1.00269e-11 5.39899e-13 -1.43125e-13 -2.22167 -0.733487 0.20892 -2.03217e-16 0.0 -3.88251e-19 -0.640551 -1.92323 -0.0064361 -0.00925457 -2.07856 -0.0764272 -0.512139 3.99733 0.14031 2.03217e-16 0.0 3.88251e-19 -1.66975 -6.49782 0.154697 -0.0023105 6.208 -0.0679823 0.53406 0.28549 -0.0665698
-55.8984 81.9099 31.515 -61.8482 85.2319 -46.5491 -0.67944 2.66469 0.550851 0.934844 0.948204 0.134921 0.517688 0.703318 -0.422905 -1.45885 7.7586 0.420105 -0.0 0.0 0.0 -0.0 0.0 0.0 -3.34306e-15 -7.8588e-14 -7.73785e-16 22.9387 16.0256 7.7056 -5.38919 -2.73757 8.08005 0.248713 -11.102 -1.4566 2.71786e-10 -1.16207e-10 -1.94312e-10 4.71909e-10 -1.85202e-10 -3.24684e-10 2.71789e-10 -1.16206e-10 -1.94323e-10 7.73091 5.47488 0.417314 2.71786e-10 -1.16207e-10 -1.94311e-10 2.90554 0.965183 0.102902 2.71792e-10 -1.16207e-10 -1.94313e-10 10.2786 0.731801 0.0259123 2.71782e-10 -1.16205e-10 -1.94305e-10 2.22167 -0.733487 -0.20892 -3.45386e-15 -7.85925e-14 -1.13991e-15 -24.0999 19.3576 -8.48155 5.44408 -2.78231 -8.14586 -0.369964 -13.5648 1.71913 -2.1163e-10 -9.3091e-11 1.99859e-10 -3.70556e-10 -1.3423e-10 3.35432e-10 -2.11636e-10 -9.30904e-11 1.99868e-10 -7.73091 5.47488 -0.417314 -2.11629e-10 -9.30914e-11 1.99854e-10 -2.90554 0.965183 -0.102902 -2.11638e-10 -9.30911e-11 1.99858e-10 -10.2786 0.731801 -0.0259123 -2.11619e-10 -9.30876e-11 1.9985e-10 -2.22167 -0.733487 0.20892 -2.03217e-16 0.0 -3.88251e-19 -1.58475 -11.1124 -0.818325 -0.00749926 6.27778 0.0440674 -0.476151 1.90709 -0.556848 2.03217e-16 0.0 3.88251e-19 1.87277 -14.4839 1.65046 -0.0243777 13.4836 -0.21326 0.392398 -2.02004 -0.28267
-55.9035 81.9075 31.5154 -61.9282 85.2258 -46.6142 0.15169 5.48211 1.17174 2.35843 1.95014 0.351772 1.07661 1.44522 -0.86957 -3.13291 15.9569 0.891823 -0.0 0.0 0.0 -0.0 0.0 0.0 -7.30169e-15 -1.75648e-13 -1.62444e-15 41.8097 31.9459 18.0361 -10.2564 -5.45092 16.6818 -0.149283 -22.8136 -3.1901 5.896e-10 -2.47945e-10 -4.13077e-10 1.02376e-09 -3.95797e-10 -6.90268e-10 5.89603e-10 -2.47944e-10 -4.13086e-10 7.73091 5.47488 0.417314 5.89599e-10 -2.47944e-10 -4.13075e-10 2.90554 0.965183 0.102902 5.89603e-10 -2.47944e-10 -4.13075e-10 10.2786 0.731801 0.0259123 5.89597e-10 -2.47942e-10 -4.13065e-10 2.22167 -0.733487 -0.20892 -7.42743e-15 -1.75659e-13 -2.01269e-15 -41.9257 38.2696 -21.1495 10.3479 -5.53634 -16.8182 0.229022 -27.8607 3.88903 -4.22481e-10 -1.83234e-10 4.03437e-10 -7.39683e-10 -2.61187e-10 6.76781e-10 -4.22487e-10 -1.83234e-10 4.03446e-10 -7.73091 5.47488 -0.417314 -4.22481e-10 -1.83234e-10 4.03434e-10 -2.90554 0.965183 -0.102902 -4.22489e-10 -1.83235e-10 4.03436e-10 -10.2786 0.731801 -0.0259123 -4.22473e-10 -1.83233e-10 4.03429e-10 -2.22167 -0.733487 0.20892 -2.03217e-16 0.0 -3.88251e-19 -2.88846 -20.82 -1.76852 -0.0447746 15.1116 0.176923 -0.493372 -0.304331 -1.29357 2.03217e-16 0.0 3.88251e-19 6.10434 -22.9063 3.38675 -0.0046569 21.1745 -0.380905 0.223237 -4.45655 -0.51541
-55.8919 81.907 31.5126 -61.638 85.2309 -46.3132 0.833436 7.99642 1.75058 3.62134 2.84244 0.550409 1.58423 2.10949 -1.26948 -4.74355 23.2706 1.35938 -0.0 0.0 0.0 -0.0 0.0 0.0 -8.03924e-15 -2.35872e-13 -2.71892e-15 52.1018 43.8909 31.641 -13.9112 -7.56076 24.4385 -1.22582 -33.2112 -5.12722 8.35377e-10 -3.49748e-10 -5.82663e-10 1.45032e-09 -5.57547e-10 -9.73554e-10 8.35381e-10 -3.49746e-10 -5.82671e-10 7.73091 5.47488 0.417314 8.35376e-10 -3.49747e-10 -5.8266e-10 2.90554 0.965183 0.102902 8.35378e-10 -3.49747e-10 -5.82657e-10 10.2786 0.731801 0.0259123 8.35375e-10 -3.49745e-10 -5.82646e-10 2.22167 -0.733487 -0.20892 -8.17691e-15 -2.35888e-13 -3.12154e-15 -47.0462 51.2909 -40.5648 14.0211 -7.67347 -24.6437 1.98065 -40.5238 6.60168 -6.1481e-10 -2.80343e-10 5.99844e-10 -1.077e-09 -4.04535e-10 1.00676e-09 -6.14815e-10 -2.80343e-10 5.99852e-10 -7.73091 5.47488 -0.417314 -6.14809e-10 -2.80342e-10 5.99842e-10 -2.90554 0.965183 -0.102902 -6.14817e-10 -2.80343e-10 5.99842e-10 -10.2786 0.731801 -0.0259123 -6.14804e-10 -2.80342e-10 5.99836e-10 -2.22167 -0.733487 0.20892 -2.03217e-16 0.0 -3.88251e-19 -4.35504 -29.4656 -2.75231 -0.11564 22.9902 0.308682 -0.556706 -2.27184 -1.95109 2.03217e-16 0.0 3.88251e-19 10.3896 -30.3701 5.20198 0.0563226 28.0339 -0.551713 0.0565851 -6.63064 -0.719156
-55.8796 81.9061 31.5171 -61.8205 85.2152 -46.4943 1.25548 9.75587 2.21035 4.49673 3.46075 0.702922 1.94177 2.58016 -1.55177 -5.92667 28.3774 1.72243 -0.0 0.0 0.0 -0.0 0.0 0.0 -7.24059e-16 -2.04005e-13 -4.42296e-15 54.49 49.8093 44.8649 -16.1042 -8.78434 29.8929 -2.53202 -40.412 -6.87249 9.01064e-10 -3.76713e-10 -6.29301e-10 1.56365e-09 -5.97187e-10 -1.05109e-09 9.01068e-10 -3.76711e-10 -6.29308e-10 7.73091 5.47488 0.417314 9.01063e-10 -3.76712e-10 -6.29298e-10 2.90554 0.965183 0.102902 9.01063e-10 -3.76712e-10 -6.29293e-10 10.2786 0.731801 0.0259123 9.01062e-10 -3.7671e-10 -6.29282e-10 2.22167 -0.733487 -0.20892 -8.66166e-16 -2.04023e-13 -4.82053e-15 -42.8338 55.8478 -60.4992 16.2229 -8.91058 -30.1556 4.31243 -49.2581 9.38992 -7.6083e-10 -3.94864e-10 7.7832e-10 -1.33478e-09 -5.88857e-10 1.3083e-09 -7.60836e-10 -3.94865e-10 7.78329e-10 -7.73091 5.47488 -0.417314 -7.6083e-10 -3.94864e-10 7.7832e-10 -2.90554 0.965183 -0.102902 -7.60836e-10 -3.94864e-10 7.78318e-10 -10.2786 0.731801 -0.0259123 -7.60826e-10 -3.94865e-10 7.78314e-10 -2.22167 -0.733487 0.20892 -2.03217e-16 0.0 -3.88251e-19 -5.56026 -35.4805 -3.52741 -0.189807 28.4812 0.413454 -0.627316 -3.63159 -2.40787 2.03217e-16 0.0 3.88251e-19 13.7516 -35.5135 6.72298 0.12798 32.8151 -0.688625 -0.0654459 -8.14911 -0.846227
-55.8628 81.9054 31.5531 -61.2264 85.0374 -45.9127 1.35884 10.4592 2.51149 4.83498 3.69452 0.795389 2.08196 2.78447 -1.67067 -6.36174 30.3982 1.85894 -0.0 0.0 0.0 -0.0 0.0 0.0 2.25599e-14 -1.22275e-13 -2.7989e-15 54.4659 51.314 50.8305 -16.8823 -9.19054 32.02 -3.20807 -43.2087 -7.68645 5.94672e-10 -2.47224e-10 -4.16621e-10 1.02946e-09 -3.8072e-10 -6.94283e-10 5.94677e-10 -2.47221e-10 -4.16627e-10 7.73091 5.47488 0.417314 5.94671e-10 -2.47223e-10 -4.16618e-10 2.90554 0.965183 0.102902 5.94673e-10 -2.47223e-10 -4.16613e-10 10.2786 0.731801 0.0259123 5.94671e-10 -2.47222e-10 -4.16603e-10 2.22167 -0.733487 -0.20892 2.24275e-14 -1.21992e-13 -3.15377e-15 -40.0401 56.2198 -69.1045 17.0112 -9.32511 -32.3226 5.61558 -52.652 10.8277 -8.43624e-10 -5.46022e-10 9.26304e-10 -1.4843e-09 -8.56406e-10 1.56105e-09 -8.43629e-10 -5.46023e-10 9.26317e-10 -7.73091 5.47488 -0.417314 -8.43623e-10 -5.46024e-10 9.26308e-10 -2.90554 0.965183 -0.102902 -8.43629e-10 -5.46021e-10 9.26305e-10 -10.2786 0.731801 -0.0259123 -8.4362e-10 -5.46022e-10 9.26301e-10 -2.22167 -0.733487 0.20892 -2.03217e-16 0.0 -3.88251e-19 -5.99969 -37.8352 -3.74885 -0.225691 30.6291 0.459113 -0.659966 -4.13672 -2.57848 2.03217e-16 0.0 3.88251e-19 15.2312 -37.4607 7.46078 0.163742 34.6867 -0.747062 -0.109485 -8.75528 -0.869098
-55.8446 81.9056 31.5896 -58.8297 84.7843 -43.533 1.24973 10.409 2.69504 4.79132 3.65368 0.844591 2.06442 2.79843 -1.67262 -6.22476 30.2158 1.80972 -0.0 0.0 0.0 -0.0 0.0 0.0 5.70264e-14 -1.16328e-15 1.00324e-15 54.7201 51.0961 50.0405 -16.7822 -9.13271 31.7486 -3.12578 -42.889 -7.58897 2.82227e-11 -8.44246e-12 -2.28648e-11 4.27081e-11 1.4626e-11 -3.41901e-11 2.82276e-11 -8.43951e-12 -2.2871e-11 7.73091 5.47488 0.417314 2.82217e-11 -8.44179e-12 -2.28624e-11 2.90554 0.965183 0.102902 2.82257e-11 -8.44244e-12 -2.28593e-11 10.2786 0.731801 0.0259123 2.82215e-11 -8.44258e-12 -2.28497e-11 2.22167 -0.733487 -0.20892 5.69137e-14 -3.7714e-16 7.17488e-16 -40.2648 56.2504 -68.187 16.9256 -9.27636 -32.0776 5.46488 -52.3009 10.6652 -8.81179e-10 -7.22764e-10 1.05276e-09 -1.55632e-09 -1.18217e-09 1.77937e-09 -8.81185e-10 -7.22766e-10 1.05278e-09 -7.73091 5.47488 -0.417314 -8.81177e-10 -7.22769e-10 1.05277e-09 -2.90554 0.965183 -0.102902 -8.81184e-10 -7.22762e-10 1.05277e-09 -10.2786 0.731801 -0.0259123 -8.81176e-10 -7.22763e-10 1.05277e-09 -2.22167 -0.733487 0.20892 -2.03217e-16 0.0 -3.88251e-19 -5.78928 -37.5808 -3.49852 -0.222338 30.3891 0.455236 -0.654601 -4.0322 -2.54345 2.03217e-16 0.0 3.88251e-19 15.1892 -37.1454 7.51284 0.159718 34.4803 -0.739647 -0.0943565 -8.70962 -0.816499
-55.826 81.9068 31.5835 -56.88 84.7253 -41.6157 1.07041 10.0599 2.80192 4.59677 3.50472 0.868541 1.97975 2.72918 -1.62496 -5.87121 29.1528 1.69459 -0.0 0.0 0.0 -0.0 0.0 0.0 8.84542e-14 2.62203e-13 -1.01372e-15 55.0133 50.19 46.5985 -16.3313 -8.8898 30.5224 -2.74398 -41.3357 -7.13163 -4.50329e-10 1.91365e-10 3.03815e-10 -7.90661e-10 3.45279e-10 5.1313e-10 -4.50324e-10 1.91368e-10 3.03808e-10 7.73091 5.47488 0.417314 -4.5033e-10 1.91365e-10 3.03816e-10 2.90554 0.965183 0.102902 -4.50324e-10 1.91365e-10 3.03818e-10 10.2786 0.731801 0.0259123 -4.5033e-10 1.91364e-10 3.03827e-10 2.22167 -0.733487 -0.20892 8.83592e-14 2.63095e-13 -1.23658e-15 -41.7219 56.1376 -63.439 16.4904 -9.04275 -30.8695 4.73513 -50.4573 9.86542 -8.98072e-10 -8.90128e-10 1.17924e-09 -1.59245e-09 -1.48984e-09 1.9983e-09 -8.98078e-10 -8.90131e-10 1.17926e-09 -7.73091 5.47488 -0.417314 -8.98069e-10 -8.90135e-10 1.17925e-09 -2.90554 0.965183 -0.102902 -8.98077e-10 -8.90126e-10 1.17925e-09 -10.2786 0.731801 -0.0259123 -8.98069e-10 -8.90125e-10 1.17925e-09 -2.22167 -0.733487 0.20892 -2.03217e-16 0.0 -3.88251e-19 -5.35256 -36.2759 -3.09492 -0.203164 29.1954 0.431277 -0.634678 -3.69273 -2.4282 2.03217e-16 0.0 3.88251e-19 14.515 -35.9375 7.27662 0.139831 33.4437 -0.706241 -0.0538058 -8.39474 -0.724125
-55.8146 81.9069 31.5789 -56.7265 84.7387 -41.4761 0.955922 9.86587 2.87443 4.48165 3.41408 0.885294 1.91891 2.68386 -1.59505 -5.65523 28.5319 1.63307 -0.0 0.0 0.0 -0.0 0.0 0.0 1.02622e-13 7.707e-13 -1.6847e-14 55.064 49.5852 44.6353 -16.0537 -8.7372 29.7861 -2.53492 -40.4302 -6.87696 -4.93027e-10 2.03934e-10 3.15266e-10 -8.64701e-10 3.67666e-10 5.31622e-10 -4.93021e-10 2.03936e-10 3.15257e-10 7.73091 5.47488 0.417314 -4.93028e-10 2.03934e-10 3.15266e-10 2.90554 0.965183 0.102902 -4.9302e-10 2.03933e-10 3.15268e-10 10.2786 0.731801 0.0259123 -4.93029e-10 2.03932e-10 3.15276e-10 2.22167 -0.733487 -0.20892 1.02531e-13 7.707e-13 -1.70458e-14 -42.5432 55.9441 -60.61 16.2244 -8.89734 -30.1478 4.34086 -49.37 9.42742 -9.18878e-10 -1.01315e-09 1.32726e-09 -1.63426e-09 -1.70312e-09 2.25287e-09 -9.18885e-10 -1.01315e-09 1.32729e-09 -7.73091 5.47488 -0.417314 -9.18875e-10 -1.01316e-09 1.32728e-09 -2.90554 0.965183 -0.102902 -9.18884e-10 -1.01315e-09 1.32728e-09 -10.2786 0.731801 -0.0259123 -9.18875e-10 -1.01315e-09 1.32727e-09 -2.22167 -0.733487 0.20892 -2.03217e-16 0.0 -3.88251e-19 -5.09 -35.4821 -2.8434 -0.192287 28.4818 0.417109 -0.623357 -3.49301 -2.3581 2.03217e-16 0.0 3.88251e-19 14.1178 -35.2035 7.16134 0.128585 32.8247 -0.687128 -0.0207827 -8.19328 -0.627571
